{"title":"I.Frankenstein.2014.BRRip.720p.DD2.0.x264-AMX","uid":9690415,"size":2204042932,"categoryP":"video","categoryS":"hd___movies","magnet":"?xt=urn:btih:bd21ca8993e0f1663a579129d8d0d4aa979c0c9f&amp;dn=I.Frankenstein.2014.BRRip.720p.DD2.0.x264-AMX&amp;tr=udp%3A%2F%2Ftracker.openbittorrent.com%3A80&amp;tr=udp%3A%2F%2Fopen.demonii.com%3A1337&amp;tr=udp%3A%2F%2Ftracker.coppersurfer.tk%3A6969&amp;tr=udp%3A%2F%2Fexodus.desync.com%3A6969","seeders":1,"leechers":0,"uploader":"Lawry1494","files":-1,"time":1393807763,"description":"General\nComplete name                  : I.Frankenstein.2014.BRRip.720p.DD2.0.x264-AMX.mkv\nFormat                         : Matroska\nFormat version                 : Version 2\nFile size                      : 2.03 GiB\nDuration                       : 1h 33mn\nOverall bit rate               : 3 119 Kbps\nWriting application            : mkvmerge v6.7.0 ('Back to the Ground') 32bit built on Jan  8 2014 15:03:17\nWriting library                : libebml v1.3.0 + libmatroska v1.4.1\n\nVideo\nID                             : 1\nFormat                         : AVC\nFormat/Info                    : Advanced Video Codec\nFormat profile                 : &lt;a class=&quot;__cf_email__&quot; href=&quot;/cdn-cgi/l/email-protection&quot; data-cfemail=&quot;8cc4e5ebe4ccc0b8a2bd&quot;&gt;[email&amp;#160;protected]&lt;/a&gt;&lt;script cf-hash='f9e31' type=&quot;text/javascript&quot;&gt;\n/* &lt;![CDATA[ */!function(){try{var t=&quot;currentScript&quot;in document?document.currentScript:function(){for(var t=document.getElementsByTagName(&quot;script&quot;),e=t.length;e--;)if(t[e].getAttribute(&quot;cf-hash&quot;))return t[e]}();if(t&amp;&amp;t.previousSibling){var e,r,n,i,c=t.previousSibling,a=c.getAttribute(&quot;data-cfemail&quot;);if(a){for(e=&quot;&quot;,r=parseInt(a.substr(0,2),16),n=2;a.length-n;n+=2)i=parseInt(a.substr(n,2),16)^r,e+=String.fromCharCode(i);e=document.createTextNode(e),c.parentNode.replaceChild(e,c)}}}catch(u){}}();/* ]]&gt; */&lt;/script&gt;\nFormat settings, CABAC         : Yes\nFormat settings, ReFrames      : 8 frames\nCodec ID                       : V_MPEG4/ISO/AVC\nDuration                       : 1h 33mn\nBit rate                       : 2 865 Kbps\nWidth                          : 1 280 pixels\nHeight                         : 536 pixels\nDisplay aspect ratio           : 2.40:1\nFrame rate mode                : Constant\nFrame rate                     : 23.976 fps\nColor space                    : YUV\nChroma subsampling             : 4:2:0\nBit depth                      : 8 bits\nScan type                      : Progressive\nBits/(Pixel*Frame)             : 0.174\nStream size                    : 1.86 GiB (92%)\nWriting library                : x264 core 140 r2377 1ca7bb9\nDefault                        : Yes\nForced                         : No\n\nAudio\nID                             : 2\nFormat                         : AC-3\nFormat/Info                    : Audio Coding 3\nMode extension                 : CM (complete main)\nFormat settings, Endianness    : Big\nCodec ID                       : A_AC3\nDuration                       : 1h 33mn\nBit rate mode                  : Constant\nBit rate                       : 192 Kbps\nChannel(s)                     : 2 channels\nChannel positions              : Front: L R\nSampling rate                  : 48.0 KHz\nBit depth                      : 16 bits\nCompression mode               : Lossy\nStream size                    : 128 MiB (6%)\nLanguage                       : English\nDefault                        : Yes\nForced                         : No\n\nSubs: None at source! (Any sub for BluRay releases should work, because everyone uses the same Russian 3D BluRay as source)\n\nChapters: None at source!\n\nSource: I.Frankenstein.2014.BluRay.720p.x264-HDWinG","torrent":{"xt":"urn:btih:bd21ca8993e0f1663a579129d8d0d4aa979c0c9f","amp;dn":"I.Frankenstein.2014.BRRip.720p.DD2.0.x264-AMX","amp;tr":["udp%3A%2F%2Ftracker.openbittorrent.com%3A80","udp%3A%2F%2Fopen.demonii.com%3A1337","udp%3A%2F%2Ftracker.coppersurfer.tk%3A6969","udp%3A%2F%2Fexodus.desync.com%3A6969"],"infoHash":"bd21ca8993e0f1663a579129d8d0d4aa979c0c9f","infoHashBuffer":{"type":"Buffer","data":[189,33,202,137,147,224,241,102,58,87,145,41,216,208,212,170,151,156,12,159]},"announce":[],"urlList":[]}}